<svg xmlns="http://www.w3.org/2000/svg" width="300" height="108.995" viewBox="0 0 300 108.995">
  <g id="Group_329" data-name="Group 329" transform="translate(-129.239 -71.7)" opacity="0.997">
    <path id="Path_105" data-name="Path 105" d="M441.676,71.7a11.243,11.243,0,0,0-10.23,15.947l-20.654,17.738a13.994,13.994,0,0,0-8.426-2.821c-.063,0-.125.008-.188.009l-1.8-7.371a9.691,9.691,0,1,0-6.092,1.478l1.787,7.383a14.06,14.06,0,0,0-7.732,11.641l-12.33,1.9a11.265,11.265,0,1,0,.914,6.139l12.366-1.925a14.044,14.044,0,0,0,19.482,7.348l12.372,14.856a11.217,11.217,0,1,0,4.861-3.95L413.54,125.179a14.016,14.016,0,0,0,1.3-15.052l20.7-17.729a11.259,11.259,0,1,0,6.134-20.7" transform="translate(-23.699)" fill="#fff"/>
    <path id="Path_106" data-name="Path 106" d="M168.533,161.634H150.015a2.79,2.79,0,0,0-2.789,2.789v5.592a2.789,2.789,0,0,0,2.789,2.789h12.925a2.788,2.788,0,0,0,1.972-.817l5.592-5.592a2.789,2.789,0,0,0-1.972-4.762" transform="translate(-1.117 -8.52)" fill="#fff"/>
    <path id="Path_107" data-name="Path 107" d="M182.763,143.647H131.9a2.66,2.66,0,0,0-2.66,2.659v39.463a2.79,2.79,0,0,0,2.789,2.789h5.82a2.789,2.789,0,0,0,2.789-2.789V157.607a2.79,2.79,0,0,1,2.79-2.789h39.335a2.789,2.789,0,0,0,2.789-2.788v-5.593a2.789,2.789,0,0,0-2.789-2.789" transform="translate(0 -7.996)" fill="#fff"/>
    <path id="Path_108" data-name="Path 108" d="M248.93,143.647H197.943a2.66,2.66,0,0,0-2.659,2.659V185.9a2.66,2.66,0,0,0,2.659,2.66h6.081a2.66,2.66,0,0,0,2.66-2.66V157.478a2.659,2.659,0,0,1,2.659-2.66H222.6a2.659,2.659,0,0,1,1.881,4.54l-.382.382a2.659,2.659,0,0,1-1.88.778h-7.41a2.659,2.659,0,0,0-2.659,2.659v5.853a2.659,2.659,0,0,0,2.659,2.659h11.394a2.658,2.658,0,0,0,1.88-.779l22.723-22.722a2.659,2.659,0,0,0-1.881-4.54" transform="translate(-6.475 -7.996)" fill="#fff"/>
    <path id="Path_109" data-name="Path 109" d="M314.975,143.654l-50.988-.006a2.659,2.659,0,0,0-2.66,2.659v5.853a2.66,2.66,0,0,0,2.66,2.659l45.135.006a2.658,2.658,0,0,0,1.88-.779l5.852-5.853a2.659,2.659,0,0,0-1.88-4.54" transform="translate(-12.949 -6.817)" fill="#fff"/>
    <path id="Path_110" data-name="Path 110" d="M323.924,179.621h-5.853a2.659,2.659,0,0,0-2.659,2.659v5.853a2.659,2.659,0,0,0,2.659,2.659h5.853a2.659,2.659,0,0,0,2.659-2.659V182.28a2.659,2.659,0,0,0-2.659-2.659" transform="translate(-17.239 -10.229)" fill="#fff"/>
    <path id="Path_111" data-name="Path 111" d="M387.269,154.512l-5.852,5.853a2.658,2.658,0,0,0-.779,1.881v1.939a2.659,2.659,0,0,1-2.659,2.659H376.04a2.659,2.659,0,0,0-1.881.779l-5.853,5.852a2.659,2.659,0,0,0,1.88,4.54h7.791a2.659,2.659,0,0,1,2.659,2.659v5.853a2.659,2.659,0,0,0,2.66,2.659h5.852a2.659,2.659,0,0,0,2.659-2.659V156.393a2.659,2.659,0,0,0-4.54-1.881" transform="translate(-22.399 -8.622)" fill="#fff"/>
    <path id="Path_112" data-name="Path 112" d="M383.4,143.647H374.05a2.659,2.659,0,0,0-1.881.779l-39.593,39.592a2.659,2.659,0,0,0,1.881,4.54h9.349a2.659,2.659,0,0,0,1.881-.779l39.592-39.592a2.659,2.659,0,0,0-1.88-4.54" transform="translate(-19.799 -7.996)" fill="#fff"/>
    <path id="Path_113" data-name="Path 113" d="M407.981,143.647h-5.853a2.659,2.659,0,0,0-2.659,2.659V185.9a2.659,2.659,0,0,0,2.659,2.66h5.853a2.66,2.66,0,0,0,2.659-2.66V146.306a2.66,2.66,0,0,0-2.659-2.659" transform="translate(-26.49 -7.996)" fill="#fff"/>
    <path id="Path_114" data-name="Path 114" d="M293.864,161.656h-5.835a2.658,2.658,0,0,0-2.659,2.658v22.836a2.658,2.658,0,0,0,2.659,2.658h5.835a2.658,2.658,0,0,0,2.658-2.658V164.314a2.658,2.658,0,0,0-2.658-2.658" transform="translate(-14.457 -9.114)" fill="#fff"/>
  </g>
</svg>
